<svg xmlns="http://www.w3.org/2000/svg" width="21.594" height="24.656" viewBox="0 0 21.594 24.656">
  <defs>
    <style>
      .cls-1 {
        fill: #fff;
        fill-rule: evenodd;
      }
    </style>
  </defs>
  <path id="icon" class="cls-1" d="M888.634,653.959a1.546,1.546,0,0,0-1.541,1.541v6.164a1.541,1.541,0,0,0,3.082,0V655.5A1.546,1.546,0,0,0,888.634,653.959Zm-18.493,0A1.546,1.546,0,0,0,868.6,655.5v6.164a1.542,1.542,0,0,0,3.083,0V655.5A1.546,1.546,0,0,0,870.141,653.959Zm2.312,10.017a2.312,2.312,0,0,0,2.312,2.311h0.77v3.083a1.541,1.541,0,0,0,3.082,0v-3.083h1.541v3.083a1.541,1.541,0,0,0,3.082,0v-3.083h0.771a2.311,2.311,0,0,0,2.311-2.311V655.5H872.453v8.476Zm9.79-15.567,0.975-1.873a0.192,0.192,0,1,0-.341-0.178l-0.99,1.9a6.948,6.948,0,0,0-5,0l-0.99-1.9a0.193,0.193,0,1,0-.342.178l0.975,1.873a6.94,6.94,0,0,0-4.036,5.55h13.783A6.94,6.94,0,0,0,882.243,648.409Zm-5.937,4.356a1.118,1.118,0,1,1,1.117-1.117A1.118,1.118,0,0,1,876.306,652.765Zm6.164,0a1.118,1.118,0,1,1,1.117-1.117A1.118,1.118,0,0,1,882.47,652.765Z" transform="translate(-868.594 -646.25)"/>
</svg>
